HIERARCHY
ROOT Hips
{
    OFFSET 0.000000 0.000000 0.000000
    CHANNELS 6 Xposition Yposition Zposition Zrotation Xrotation Yrotation
    JOINT Spine
    {
        OFFSET -0.000000 14.517291 0.000000
        CHANNELS 3 Zrotation Xrotation Yrotation
        JOINT Spine1
        {
            OFFSET -0.000000 37.558300 0.000000
            CHANNELS 3 Zrotation Xrotation Yrotation
            JOINT Neck
            {
                OFFSET -0.000000 37.404057 3.400369
                CHANNELS 3 Zrotation Xrotation Yrotation
                JOINT Head
                {
                    OFFSET -0.000000 24.785618 -3.540803
                    CHANNELS 3 Zrotation Xrotation Yrotation
                    End Site
                    {
                        OFFSET -0.000000 35.408028 0.000000
                    }
                }
            }
            JOINT LeftShoulder
            {
                OFFSET 6.992933 33.973492 -0.192664
                CHANNELS 3 Zrotation Xrotation Yrotation
                JOINT LeftArm
                {
                    OFFSET 21.527611 0.000000 0.000000
                    CHANNELS 3 Zrotation Xrotation Yrotation
                    JOINT LeftForeArm
                    {
                        OFFSET 56.353916 0.000000 0.000000
                        CHANNELS 3 Zrotation Xrotation Yrotation
                        JOINT LeftHand
                        {
                            OFFSET 47.774071 0.000000 0.000000
                            CHANNELS 3 Zrotation Xrotation Yrotation
                            End Site
                            {
                                OFFSET 26.556021 0.000000 0.000000
                            }
                        }
                    }
                }
            }
            JOINT RightShoulder
            {
                OFFSET -7.065357 33.973492 -0.192664
                CHANNELS 3 Zrotation Xrotation Yrotation
                JOINT RightArm
                {
                    OFFSET -21.527611 0.000000 0.000000
                    CHANNELS 3 Zrotation Xrotation Yrotation
                    JOINT RightForeArm
                    {
                        OFFSET -56.353916 0.000000 0.000000
                        CHANNELS 3 Zrotation Xrotation Yrotation
                        JOINT RightHand
                        {
                            OFFSET -47.774071 0.000000 0.000000
                            CHANNELS 3 Zrotation Xrotation Yrotation
                            End Site
                            {
                                OFFSET -26.556021 0.000000 0.000000
                            }
                        }
                    }
                }
            }
        }
    }
    JOINT LeftUpLeg
    {
        OFFSET 17.704014 0.000000 0.000000
        CHANNELS 3 Zrotation Xrotation Yrotation
        JOINT LeftLeg
        {
            OFFSET -0.000000 -81.181816 0.000000
            CHANNELS 3 Zrotation Xrotation Yrotation
            JOINT LeftFoot
            {
                OFFSET -0.000000 -62.821102 0.000000
                CHANNELS 3 Zrotation Xrotation Yrotation
                JOINT LeftToeBase
                {
                    OFFSET -0.000000 -11.507608 26.556021
                    CHANNELS 3 Zrotation Xrotation Yrotation
                    End Site
                    {
                        OFFSET -0.000000 0.000000 7.081605
                    }
                }
            }
        }
    }
    JOINT RightUpLeg
    {
        OFFSET -17.704014 0.000000 0.000000
        CHANNELS 3 Zrotation Xrotation Yrotation
        JOINT RightLeg
        {
            OFFSET -0.000000 -81.181816 0.000000
            CHANNELS 3 Zrotation Xrotation Yrotation
            JOINT RightFoot
            {
                OFFSET -0.000000 -62.821102 0.000000
                CHANNELS 3 Zrotation Xrotation Yrotation
                JOINT RightToeBase
                {
                    OFFSET -0.000000 -11.507608 26.556021
                    CHANNELS 3 Zrotation Xrotation Yrotation
                    End Site
                    {
                        OFFSET -0.000000 0.000000 7.081605
                    }
                }
            }
        }
    }
}
MOTION
Frames:    8
Frame Time:    0.008333
33.818085    160.047668    -98.441925    -2.098197    -1.852337    27.066477    -0.625649    -4.979352    -2.475399    -8.208778    2.018326    -0.668389    16.071461    0.141527    2.525983    3.133940    -0.613800    0.708515    9.910837    5.814529    -13.447655    -37.934124    11.705926    -53.768082    -8.128690    -23.055567    -115.746002    -4.312382    -34.065090    -12.054881    -12.378934    -0.977443    -7.193049    10.441302    2.649626    28.824770    18.893353    22.576719    -5.867793    5.863560    24.209015    15.549445    10.932571    3.440955    -1.609181    -9.272454    20.964315    -17.923737    5.060932    -22.411535    44.650131    0.000000    0.000000    0.000000    -12.327490    -24.000061    -8.667521    10.961973    26.614935    -13.247358    2.916839    10.134587    -12.787375    0.000000    0.000000    0.000000    
33.881767    160.053253    -98.426018    -2.130547    -1.831958    26.925350    -0.617531    -4.992371    -2.540831    -8.225758    2.005108    -0.690944    16.240807    0.158633    2.620154    3.033942    -0.542696    0.766970    9.970282    5.858202    -13.492749    -38.014828    11.654325    -53.769741    -8.133151    -23.010408    -115.714531    -4.325829    -34.021500    -12.092663    -12.327898    -0.950091    -7.287303    10.414204    2.758839    28.731653    18.917934    22.547234    -5.840605    6.113498    24.202621    15.438080    10.912167    3.478028    -1.509053    -9.261145    20.933764    -17.905205    5.085674    -22.410259    44.684677    0.000000    0.000000    0.000000    -12.285082    -24.046425    -8.581077    10.974654    26.591740    -13.261786    2.916719    10.174562    -12.744099    0.000000    0.000000    0.000000    
33.942482    160.058014    -98.417366    -2.164755    -1.799529    26.785339    -0.601710    -5.021191    -2.593113    -8.269304    2.021446    -0.706630    16.440203    0.158360    2.713331    2.906922    -0.502700    0.814132    10.054972    5.883123    -13.498780    -37.257915    12.564497    -54.035526    -7.486800    -24.735403    -115.660637    -4.618738    -34.678432    -12.131995    -12.254154    -1.054462    -7.315522    10.420001    2.860648    28.537703    18.971849    22.578890    -5.862252    6.298785    24.255041    15.287161    10.888015    3.502509    -1.411063    -9.250718    20.901163    -17.868916    5.084937    -22.424723    44.702435    0.000000    0.000000    0.000000    -12.243689    -24.110804    -8.518064    10.961662    26.577787    -13.234545    2.922875    10.220730    -12.702333    0.000000    0.000000    0.000000    
33.997047    160.059860    -98.401955    -2.192175    -1.781726    26.657129    -0.659229    -5.019439    -2.665215    -8.133041    1.976186    -0.735324    16.466124    0.264973    2.776800    2.846507    -0.516187    0.883538    9.965165    5.917919    -13.615052    -37.311401    12.493098    -53.916237    -7.499244    -24.689222    -115.681671    -4.581472    -34.661304    -12.106363    -12.308559    -1.024321    -7.335441    10.470091    2.882785    28.429909    19.034550    22.647350    -5.958520    6.230870    24.334639    15.338432    10.870713    3.542650    -1.283991    -9.230421    20.873060    -17.844862    5.068884    -22.448942    44.691574    0.000000    0.000000    0.000000    -12.200337    -24.153530    -8.429901    10.971570    26.554489    -13.241406    2.908771    10.260484    -12.680412    0.000000    0.000000    0.000000    
34.059116    160.058777    -98.381409    -2.213265    -1.769828    26.520515    -0.615058    -5.017690    -2.721816    -8.260732    2.003195    -0.750797    16.722483    0.194298    2.876288    2.728779    -0.417106    0.918503    10.155001    5.942263    -13.569879    -37.359394    12.495878    -54.054520    -7.444844    -24.736650    -115.634766    -4.553010    -34.625641    -12.103208    -12.164448    -1.082855    -7.411228    10.469670    2.883319    28.318508    19.077238    22.638311    -5.960809    6.327047    24.335278    15.246792    10.852184    3.603818    -1.155699    -9.221934    20.826471    -17.811243    5.087201    -22.452082    44.674953    0.000000    0.000000    0.000000    -12.158567    -24.189091    -8.340651    10.975963    26.541006    -13.219688    2.901492    10.279292    -12.661040    0.000000    0.000000    0.000000    
34.115196    160.053970    -98.366249    -2.227554    -1.746477    26.397114    -0.614150    -5.028549    -2.768752    -8.298125    2.008987    -0.765343    16.897154    0.196381    2.941723    2.628587    -0.361265    0.944766    10.213042    5.930003    -13.609911    -37.490417    12.370186    -54.028305    -7.556097    -24.514256    -115.640244    -4.495705    -34.578220    -12.093213    -12.088536    -1.085525    -7.491205    10.472488    3.026478    28.244160    19.002121    22.574516    -5.959216    6.216414    24.255661    15.263282    10.822267    3.650598    -1.019438    -9.200300    20.785536    -17.812111    5.103725    -22.451988    44.660316    0.000000    0.000000    0.000000    -12.133780    -24.233973    -8.267708    10.986788    26.538326    -13.186756    2.887827    10.287855    -12.655468    0.000000    0.000000    0.000000    
34.169216    160.048431    -98.358765    -2.243242    -1.712172    26.275635    -0.640067    -5.041585    -2.821085    -8.285501    2.005743    -0.782737    17.033859    0.223671    3.002808    2.543015    -0.343907    0.979118    10.246732    5.964142    -13.659597    -37.436531    12.441473    -54.058792    -7.457129    -24.759586    -115.641090    -4.633745    -34.655144    -12.138830    -12.033337    -1.055355    -7.570727    10.490265    3.076470    28.183781    18.938679    22.504641    -5.938104    6.379993    24.197664    15.210102    10.785077    3.673816    -0.885363    -9.169247    20.763615    -17.816261    5.090422    -22.478125    44.658276    0.000000    0.000000    0.000000    -12.107135    -24.293564    -8.191901    10.982531    26.532061    -13.208809    2.867503    10.305195    -12.590414    0.000000    0.000000    0.000000    
34.219936    160.038391    -98.347267    -2.254826    -1.686742    26.154453    -0.674921    -5.040670    -2.879539    -8.258741    2.001125    -0.802618    17.121975    0.216374    3.065961    2.524855    -0.293138    1.026849    10.295075    5.975166    -13.681873    -37.550568    12.311323    -54.053635    -7.516264    -24.589979    -115.638313    -4.623420    -34.579323    -12.176286    -12.003128    -1.056417    -7.648581    10.528243    3.104995    28.139889    18.873850    22.093567    -5.738377    6.663595    23.773115    14.844872    10.749640    3.699570    -0.756000    -9.150549    20.762247    -17.813059    5.101976    -22.510994    44.666149    0.000000    0.000000    0.000000    -12.076808    -24.340397    -8.112718    10.975250    26.525969    -13.154969    2.845421    10.304882    -12.592028    0.000000    0.000000    0.000000    
